<svg xmlns="http://www.w3.org/2000/svg" width="731.994" height="660.5" viewBox="0 0 731.994 660.5"><defs><style>.a{fill:#bbe7f2;}.b{fill:#3b8b58;}.c{fill:#307147;}.d{fill:#59a960;}.e{fill:#73c078;}.f{fill:#4d7abb;}.g{fill:#79c0c4;}.h{fill:#0bf;opacity:0.5;}.i,.j{fill:#fff;}.j{opacity:0.3;}.k{fill:#0a3c5f;}.l{fill:#fdb18d;}.m{fill:#0d134f;}.n{fill:#62c1c5;}.o{fill:#f09474;}.p{fill:#f8a510;}.q{fill:#fdd247;}.r{fill:#e9f9f9;}.s{fill:#adcccc;}.t{fill:#ba7c0c;}.u{fill:#2466b4;}.v{fill:#5600b5;}.w{fill:#410088;}.x{fill:#3d895b;}.y{fill:#73c176;}.z{fill:#1cdbc9;}</style></defs><g transform="translate(-5.334 -38.803)"><g transform="translate(74.895 367.927)"><path class="a" d="M80.327,302.559c29.289,5.055,49.807-26.316,23.342-46.387-18.287-13.976-56.646-6.839-52.78,21.409C52.822,290.962,67.987,300.329,80.327,302.559Z" transform="translate(-50.617 -249.233)"/></g><g transform="translate(5.334 38.803)"><g transform="translate(33.411)"><path class="a" d="M122.936,171.862c-1.745-36.635,14.479-81.643,56.522-83.038,76.235-2.617,118.1,87.749,186.662,104.5,47.1,11.514,76.235-21.806,110.95-46.229,37.507-26.516,77.456-62.453,127.7-51.114,32.448,7.327,50.765,40.3,53.556,70.827,2.966,32.622-12.735,58.79-9.944,90.191,2.791,33.146,38.03,47.451,55.3,74.839,21.457,33.843,28.61,72.92,18.317,111.648-9.944,37.332-38.379,74.49-74.839,88.97-49.369,19.713-86.353-9.944-132.233-23.376-65.593-19.015-96.82,15.875-142.526,55.3-28.261,24.249-64.2,45.88-103.449,39.949-55.126-8.374-72.222-83.213-72.746-129.442-.349-29.482,12.909-63.674-8.723-86.353-20.76-21.632-41.17-18.666-69.431-20.411-22.5-1.4-48.846-9.944-56.522-33.146-3.489-10.816-3.14-25.121,3.663-34.541,17.1-23.551,57.394-24.074,63.326-53.556C133.4,222.1,124.157,196.46,122.936,171.862Z" transform="translate(-59.352 -39.772)"/><path class="a" d="M256.742,115.316c10.467-42.74-86.353-77.63-89.319-35.762-1.57,22.33,31.4,49.893,51.288,53.556C237.2,136.6,252.031,134.157,256.742,115.316Z" transform="translate(21.067 -60.682)"/></g><g transform="translate(0 4.496)"><g transform="translate(28.111 365.87)"><g transform="translate(0 0)"><path class="b" d="M266.5,395.823c-7.5-17.445-10.816-36.111-21.109-52.161-4.012-6.106-7.85-11.688-13.956-16.224-7.327-5.757-15.526-4.71-23.551-8.2-14.828-6.28-23.2-23.376-37.332-31.75a66.314,66.314,0,0,0-47.1-7.676c-14.828,3.14-25.121,4.885-39.426-1.4-10.99-4.71-33.843-12.56-26.168,8.374C62.4,299,77.572,305.109,85.074,316.448c8.025,12.211,9.944,30.005,20.76,40.3,10.293,9.769,24.074-1.047,35.065,8.025,11.339,9.42,14.828,22.33,28.959,30.005,15.177,8.374,33.32,10.99,50.416,11.863,12.037.7,35.413,1.919,49.2-3.489C268.421,400.707,267.549,398.265,266.5,395.823Z" transform="translate(-56.314 -272.987)"/></g></g><path class="c" d="M116.876,321.107c36.635,38.9,80.422,65.593,128.919,74.665-.349-.7-.523-1.4-.872-2.268-7.5-17.445-10.816-36.111-21.109-52.161-4.012-6.106-7.85-11.688-13.956-16.224-7.327-5.757-15.526-4.71-23.551-8.2-14.828-6.28-23.2-23.376-37.332-31.75a66.314,66.314,0,0,0-47.1-7.676A134.128,134.128,0,0,1,85.3,280.111C95.244,294.94,105.536,309.07,116.876,321.107Z" transform="translate(-6.623 95.202)"/><g transform="translate(539.954)"><path class="b" d="M427.143,235.338c-11.863-2.442,12.037-22.33,15.352-25.644,8.723-8.548,25.47-23.2,23.376-37.158-2.093-13.782-16.747-3.663-25.121-5.931,1.57-9.769,15.177-19.19,21.109-26.342,4.536-5.582,9.246-11.514,10.641-18.841,3.14-15.352-6.8-18.317-18.492-11.339-1.745-2.442-1.221-6.106-.872-9.071.872-8.025,7.327-35.588-6.455-37.681C439.529,62.109,433.423,77.112,431.155,82c-2.617,5.408-5.757,19.887-10.816,23.2-5.408,3.663-5.408-5.582-11.339-4.885-6.455.7-7.85,13.956-8.723,18.841-1.4,8.9-.349,17.968.523,26.865.523,5.059,2.617,11.688-.349,16.224-3.314-2.617-6.629-6.8-10.293-9.071-8.9-5.582-10.641,4.187-12.56,11.688-2.966,12.909-1.047,26.865-.872,39.949,0,4.71,1.919,16.922-1.4,20.062-7.676-5.931-20.062-17.968-24.074-1.047-2.617,10.99-1.57,24.249.7,35.239,1.4,7.152,7.676,32.448,14.3,50.242,1.047-.7,2.268-1.57,3.315-2.268,9.42-6.8,19.538-11.863,29.308-18.492,13.258-9.071,28.087-20.934,36.286-34.89,2.093-3.489,7.85-14.654,5.408-18.492C437.436,229.407,430.632,236.036,427.143,235.338Z" transform="translate(-349.717 -63.26)"/></g><path class="c" d="M434.584,162.366c-3.315-5.234-9.944,1.4-13.607.7-.523-.174-.872-.174-1.4-.349-19.887,16.049-38.554,33.843-53.382,54.777-2.966,4.187-5.757,8.374-8.2,12.56.7,2.268,1.57,4.361,2.268,6.455,1.047-.7,2.268-1.57,3.315-2.268,9.42-6.8,19.538-11.863,29.308-18.492,13.258-9.071,28.087-20.934,36.286-34.89C431.095,177.368,436.852,166.2,434.584,162.366Z" transform="translate(196.403 9.015)"/><g transform="translate(68.402 22.076)"><path class="d" d="M222.267,365.826c5.408-19.538,12.212-39.6,15.526-59.488,2.617-16.049-3.838-33.32-11.688-47.1-6.629-11.165-20.411-18.841-26.691-30.18-8.025-14.654-3.489-34.541-8.374-50.416-5.234-17.271-15.7-28.784-29.482-39.775-12.212-9.595-21.109-13.084-28.61-27.214-6.8-12.735-13.956-28.261-28.435-34.018-33.494-13.433-8.723,55.824-7.327,68.733,1.4,14.654-4.361,23.725-10.99,36.111-9.595,17.968-9.769,35.413,4.361,51.812,12.212,14.479,24.6,18.492,21.632,39.6-2.268,15.177-4.536,32.1,0,47.45,5.408,17.794,15.352,34.367,31.227,43.613A183.6,183.6,0,0,0,165.4,375.77c6.106,2.617,29.831,6.629,49.021,9.42A91.745,91.745,0,0,0,222.267,365.826Z" transform="translate(-79.41 -75.914)"/></g><path class="b" d="M152.6,291.849c6.106,2.617,29.831,6.629,49.021,9.42a98.014,98.014,0,0,0,6.28-14.479c-12.56-23.551-30.18-45.357-55.3-65.07A266.04,266.04,0,0,0,99.392,188.4c0,.523-.174,1.047-.174,1.57-2.268,15.177-4.536,32.1,0,47.451,5.408,17.794,15.352,34.367,31.227,43.613A235.622,235.622,0,0,0,152.6,291.849Z" transform="translate(1.789 29.908)"/><g transform="translate(563.612 101.252)"><path class="d" d="M475.139,272.723c9.944-34.192,14.479-72.571,11.863-108.159a199.274,199.274,0,0,1,1.57-43.264c-4.71,4.885-10.293,9.246-13.084,12.386-9.769,10.641-20.411,20.76-30.18,31.576-26.342,29.831-52.684,61.755-67.687,98.913-9.944,24.423-15.526,49.544-14.13,75.537a156.654,156.654,0,0,0,6.106,35.762c1.047,3.838,2.442,9.246,4.012,14.654C424.374,367.449,459.613,326.279,475.139,272.723Z" transform="translate(-363.278 -121.3)"/></g><path class="b" d="M382.231,197c-1.745,3.489-3.315,7.152-4.71,10.641-9.944,24.423-15.526,49.544-14.13,75.537a156.653,156.653,0,0,0,6.106,35.762c1.047,3.838,2.442,9.246,4.012,14.654a188.069,188.069,0,0,0,42.043-25.644A227.727,227.727,0,0,0,382.231,197Z" transform="translate(200.259 36.311)"/><path class="b" d="M468.968,218.1c-32.273,7.5-60.185,22.33-86.527,41.694a213.816,213.816,0,0,0-18.841,15.7,165.878,165.878,0,0,0,5.408,27.738c1.047,3.838,2.442,9.246,4.012,14.654C418.377,297.824,451.349,263.108,468.968,218.1Z" transform="translate(200.573 52.02)"/><g transform="translate(0 213.772)"><path class="e" d="M182.726,238.135c-28.61-22.5-59.139-39.426-94.552-47.45-10.293-2.268-30.354-1.919-47.974-4.885,35.413,38.03,51.986,98.216,81.294,139.56,37.332,52.684,87.4,88.97,147.236,99.088C262.275,351.353,246.575,288.377,182.726,238.135Z" transform="translate(-40.2 -185.8)"/></g><g transform="translate(500.847 280.761)"><path class="e" d="M409.466,271.127c27.214-20.236,56.347-35.413,90.016-42.566,9.769-2.093,28.959-1.745,45.706-4.361-33.669,34.018-49.544,88.1-77.456,125.255-35.588,47.276-83.213,79.9-140.433,88.8C333.755,372.657,348.757,316.135,409.466,271.127Z" transform="translate(-327.3 -224.2)"/></g><path class="d" d="M327.4,426.339c33.32-5.233,63.326-18.492,89.668-38.03a228.238,228.238,0,0,0,25.3-104.5,225.416,225.416,0,0,0-4.187-43.613,301.753,301.753,0,0,0-28.784,18.841C348.683,304.223,333.68,360.745,327.4,426.339Z" transform="translate(173.622 68.473)"/><g transform="translate(42.74 236.8)"><path class="d" d="M286.078,422.122c-14.131-6.8-28.784-18.666-38.728-27.04-35.065-29.657-63.151-66.64-90.365-102.577-3.315-4.361-6.629-8.9-10.118-13.258-14.3-18.841-26.516-32.622-39.426-44.659-1.4-1.221-2.791-2.617-4.187-4.012C91.914,219.76,77.958,206.327,64.7,200.57l.7-1.57c13.433,5.931,27.738,19.364,39.077,30.18,1.4,1.4,2.791,2.617,4.187,4.012,12.909,12.212,25.121,25.993,39.6,44.834,3.315,4.361,6.8,8.9,10.118,13.258,27.214,35.762,55.126,72.571,90.191,102.228,9.769,8.2,24.423,20.062,38.379,26.691Z" transform="translate(-64.7 -199)"/></g><g transform="translate(103.449 68.106)"><path class="b" d="M196.146,350.194c-1.919-15.7-5.234-28.784-10.816-40.821-9.42-21.109-20.236-37.681-33.843-51.986-11.863-12.56-21.632-24.423-21.806-43.613,0-4.187.174-8.548.174-12.56.349-13.084.523-25.644-2.093-38.379-4.885-22.33-16.224-40.473-28.261-59.662l.7-.523.7-.349-.7.349.7-.349c12.212,19.364,23.551,37.681,28.61,60.185,2.791,12.909,2.442,25.993,2.268,38.728-.174,4.187-.174,8.374-.174,12.56,0,18.492,9.595,30.18,21.283,42.391,13.782,14.479,24.6,31.052,34.192,52.335,5.582,12.212,8.9,25.47,10.816,41.345Z" transform="translate(-99.5 -102.3)"/></g><g transform="translate(546.902 38.101)"><path class="c" d="M355.27,343.287l-1.57-.349c1.4-6.8,2.268-13.782,2.966-20.236,1.047-9.246,2.093-18.841,5.059-28.087,1.57-5.059,2.966-9.595,4.71-14.3,2.093-5.582,3.838-11.339,5.757-16.922,2.791-8.548,5.757-17.62,9.246-26.168,3.14-7.85,7.152-15.875,10.99-23.725,4.012-8.2,8.374-16.747,11.514-25.121,2.966-7.676,5.234-15.7,7.5-23.376,2.966-10.293,5.931-20.76,10.641-30.7,5.408-11.514,7.85-22.5,10.467-34.192,1.047-4.885,2.268-9.944,3.489-15l1.57.349c-1.4,5.059-2.442,10.118-3.489,14.828-2.617,11.688-5.059,22.853-10.642,34.541-4.71,9.769-7.676,20.236-10.641,30.529-2.268,7.85-4.536,15.875-7.5,23.551-3.315,8.374-7.5,16.922-11.688,25.3-3.838,7.676-7.85,15.7-10.99,23.551-3.489,8.723-6.455,17.619-9.246,26.168-1.919,5.582-3.664,11.339-5.757,17.1-1.744,4.885-3.14,9.246-4.71,14.3-2.791,9.246-3.838,18.317-4.885,27.912C357.363,329.505,356.666,336.483,355.27,343.287Z" transform="translate(-353.7 -85.1)"/></g><g transform="translate(548.647 159.518)"><path class="b" d="M355.747,386.37l-1.047-1.221c4.885-4.012,7.85-10.118,10.641-15.875a62.861,62.861,0,0,1,6.8-12.037,64.592,64.592,0,0,1,4.187-5.059c2.966-3.663,5.931-6.978,8.548-12.037,5.582-10.816,8.9-22.155,11.514-32.8.872-3.489,1.745-7.152,2.617-10.816,3.489-14.13,6.978-28.61,12.56-41.345l2.268-5.234c7.676-17.619,15.526-35.762,27.389-50.765,12.386-15.875,19.364-28.261,27.04-44.485l1.4.7c-7.85,16.4-14.654,28.959-27.214,44.834C430.76,215.06,422.91,233.2,415.234,250.648l-2.268,5.233c-5.582,12.56-9.071,27.04-12.386,41-.872,3.663-1.745,7.327-2.617,10.816-2.791,10.816-6.106,22.33-11.688,33.146a57.554,57.554,0,0,1-8.723,12.386c-1.4,1.57-2.791,3.315-4.187,5.059a69.722,69.722,0,0,0-6.629,11.688C363.771,375.9,360.806,382.183,355.747,386.37Z" transform="translate(-354.7 -154.7)"/></g><g transform="translate(474.854 324.897)"><path class="d" d="M313.272,452.56l-.872-1.4c3.14-1.919,4.536-4.187,6.106-6.8a37.764,37.764,0,0,1,2.617-3.838c8.548-11.165,16.747-22.5,24.772-33.494,12.037-16.573,24.423-33.669,38.03-50.067,7.327-8.9,16.4-16.049,25.121-23.028,8.548-6.8,17.445-13.956,24.6-22.678l3.838-4.71c16.224-19.887,31.75-38.728,49.37-57.045l1.221,1.047c-17.62,18.143-32.971,36.984-49.2,56.871l-3.838,4.71c-7.152,8.722-16.224,16.049-24.772,22.853-8.723,6.978-17.619,14.131-24.772,22.853-13.607,16.4-25.993,33.495-38.03,49.893-8.025,10.99-16.224,22.33-24.772,33.494a22.294,22.294,0,0,0-2.442,3.664C318.331,447.85,316.761,450.467,313.272,452.56Z" transform="translate(-312.4 -249.5)"/></g><g transform="translate(68.559 387.166)"><path class="c" d="M293.9,410.634c-2.268-2.268-4.536-4.361-6.629-6.455-17.445-16.922-30.18-29.308-56-34.192-3.14-.523-6.28-1.047-9.595-1.57-6.978-1.047-14.3-2.093-20.585-4.361-8.548-2.966-14.828-9.071-21.109-15-5.757-5.582-11.165-10.816-18.317-13.782a99.056,99.056,0,0,0-14.479-4.71c-9.769-2.617-18.143-4.885-27.563-15.526q-2.617-3.14-5.757-7.327c-8.548-11.339-19.19-25.47-33.669-19.364l-.7-1.57c15.7-6.455,26.691,8.2,35.588,19.887,2.093,2.617,4.012,5.234,5.757,7.152,9.071,10.293,17.271,12.386,26.691,15a91.468,91.468,0,0,1,14.828,4.885c7.327,3.14,13.258,8.723,18.841,14.131,5.931,5.757,12.212,11.688,20.411,14.654,6.28,2.268,13.433,3.315,20.411,4.361,3.14.523,6.455,1.047,9.595,1.57,26.342,5.059,39.251,17.445,56.871,34.716,2.093,2.093,4.361,4.187,6.629,6.455Z" transform="translate(-79.5 -285.194)"/></g><g transform="translate(79.549 85.028)"><g transform="translate(59.139)"><circle class="f" cx="228.53" cy="228.53" r="228.53"/><g transform="translate(0.174 1.919)"><path class="g" d="M323.545,144.85c-1.744,3.838-7.152,2.442-8.723,5.582-2.442,5.059.174,9.595,1.221,14.3,1.919,10.641,5.059,15-5.757,21.283-10.293,6.106-13.258,1.744-12.735,16.224.174,5.059,4.71,5.234,1.919,10.642-.872,1.744-8.2,2.442-10.118,5.233-5.757,8.2,3.14,19.015.872,28.087-2.617,10.641-10.467,9.071-17.445,14.479-13.607,10.641-9.42,36.809-25.47,44.485-6.28,3.14-21.632-.349-25.993-5.408-6.8-7.676-1.919-16.573,1.4-23.9,4.361-9.944,5.408-12.037.174-21.632-1.919-3.489-4.885-4.536-6.28-9.246-1.4-4.885,1.4-10.467-.872-15.352-1.745-3.838-6.8-4.187-8.374-7.327-2.268-4.536-.523-9.595-2.617-13.956-1.047-2.093-4.361-8.025-6.978-8.548-7.85-1.4-3.14,4.536-5.931,8.548-11.514,17.1-23.551-1.744-40.3,4.361a80.993,80.993,0,0,0-12.037,6.455A228.916,228.916,0,0,1,303.483,113.1C312.031,123.044,331.221,128.452,323.545,144.85Z" transform="translate(-105.133 -113.1)"/><path class="g" d="M325.443,286.925c-9.595-25.3-24.423-4.012-39.949-16.747-4.361-3.663-3.838-10.467-10.293-12.56-6.978-2.268-16.049,3.838-24.249,2.966-20.585-2.093-29.657,7.85-35.588,28.959-2.966,10.816-4.361,15.7,4.536,23.2,3.489,2.966,9.071,3.663,12.037,7.152,3.663,4.012,2.791,9.595,5.582,13.433,4.536,6.106,13.782,6.978,19.19,13.782,2.442,2.966,2.268,8.025,5.234,11.339,3.315,3.489,8.548,2.966,12.386,6.8,10.118,9.944,11.688,24.074,11.339,36.809-.7,17.1,10.467,22.679,27.214,21.109,3.838-13.258,9.595-6.8,19.19-11.688,8.025-4.012,12.386-15.526,14.13-23.725,2.093-10.118.872-11.339,8.374-20.411,5.931-6.978,11.165-13.956,11.863-23.376,1.047-14.654-4.885-12.56-13.084-18.841-5.757-4.361-9.944-10.99-15.352-15.526-4.536-3.838-5.582-2.617-8.548-8.2C327.537,297.217,327.188,291.46,325.443,286.925Z" transform="translate(-50.335 -5.885)"/><path class="g" d="M494.121,319.684a227.756,227.756,0,0,1-19.887,93.331h-7.85c-9.769.349-19.538-3.315-24.946-11.688-2.966-4.536-.7-9.769-5.931-13.956-3.489-2.791-8.9-1.221-12.909-2.617-14.13-4.71-7.327-9.595-9.42-20.062-1.745-8.9-13.782-13.956-22.5-10.99-8.025,2.791-9.769,13.782-19.015,13.433-10.641-.523-12.037-12.909-14.13-20.236-3.838-12.56-2.617-14.13-14.479-9.769-1.221.523-9.944,4.536-10.293,5.059-2.966,3.663.174,9.42-2.442,13.084-5.582,8.2-15-3.489-17.445-10.816-1.57-4.361,0-9.595-1.4-14.13-1.221-3.838-5.757-5.408-6.8-9.42-4.361-15,7.152-12.037,13.607-19.19,11.165-12.386-4.361-12.037-12.735-7.152-4.536,2.617-5.408,6.106-10.642,7.327-4.361,1.047-9.42-1.745-14.3-1.221-4.71.523-6.455,3.838-11.863,3.663-6.978-.174-5.234-2.966-10.293-5.059-11.339-4.361-16.4,1.919-27.389.174-2.442-9.595,8.374-16.573,15.526-19.713,4.71-2.093,9.42-1.745,13.607-4.187,4.536-2.617,5.059-6.978,10.99-8.9,9.595-3.14,19.538-3.664,28.435-8.548,6.978-3.838,13.258-15-1.047-16.747,2.617-16.573-17.794-4.187-23.9-4.536-18.317-.872-3.838-14.13,4.71-19.364,4.71-2.966,9.944-5.234,14.479-7.676,5.931-3.14,7.5-5.234,12.386-8.9,16.224-12.037,9.769,4.71,23.725,5.234-1.919,17.445,9.42,12.037,17.968,4.536,2.093-1.919,3.315-6.8,6.106-8.025,2.966-1.221,4.71,2.093,5.931,1.919a107.308,107.308,0,0,1,15-2.268c-.7-5.757-5.234-15.7-1.919-20.934,1.4-2.268,8.025-1.4,10.467-3.663,4.361-4.361,3.664-5.234,4.71-10.641,1.919-9.42-1.57-11.688,5.931-18.666A61.481,61.481,0,0,1,406.373,140,227.118,227.118,0,0,1,494.121,319.684Z" transform="translate(-37.236 -93.073)"/><path class="g" d="M263.547,422.063c1.221,18.841-9.595,8.548-21.457,13.433a48.312,48.312,0,0,1-1.57,15c-12.735,6.28-11.339,16.747-9.944,27.912a228.449,228.449,0,0,1-42.391-32.971c-.174-2.268-.523-4.536-.7-6.629-.174-1.919,3.315-2.442,2.268-5.582-.349-1.047-4.012-2.791-4.885-4.71-2.093-5.234-4.012-5.931-4.536-12.037-.523-9.42,7.327-17.271,8.374-25.993.523-4.536-2.791-8.2-2.442-13.084.174-4.187,2.791-7.327,3.315-11.688-7.5-2.791-13.258-4.361-18.492-9.42-5.757,5.408-19.015-2.617-25.121-3.663-9.246-1.745-16.922-2.791-19.015-15.177-.174-.174-.523-.174-.7-.349h0a232.466,232.466,0,0,1-6.455-54.429,229.664,229.664,0,0,1,10.816-69.606c9.769,1.221,6.8-.349,11.863-6.106,3.489-4.012,23.2-29.308,26.342-9.595,8.025-.349,23.551.872,19.887,13.258-2.268,7.5-16.4,6.8-21.632,15.352-5.931,9.769-.872,13.258,6.28,20.062,10.641,10.292,10.467,10.467,15.177-2.093,1.919-5.234-3.489-6.106,3.838-8.548,4.885-1.745,8.2.7,11.514,3.838,4.536,4.187,2.617,8.548,8.723,12.386,3.838,2.617,8.723,1.4,12.909,2.617,7.152,2.093,24.249,12.212,17.445,22.33-5.582,8.374-21.283-3.663-25.819,1.4a1.9,1.9,0,0,1-.872.174c.7,9.769,13.782,10.293,12.735,19.713-8.374.349-21.283-2.791-26.865,3.663-4.536,5.408-.349,23.725-4.012,27.04-5.931,5.234-18.317-1.744-23.725-4.187-4.012-1.744-6.629-5.233-11.514-5.059-.872,0-10.816,5.233-10.99,5.582-3.14,8.025,8.9,17.445,16.049,19.015,7.85,1.745,13.607-5.408,23.2-.7,8.9,4.361,7.5,12.037,19.19,13.956,6.8,1.221,21.981-1.919,27.214,2.617,5.408,4.71,1.744,10.118,5.582,15.526,3.14,4.187,9.246,4.361,13.433,5.582,10.118,2.966,19.538,5.408,19.887,18.841C258.663,402.525,262.675,407.933,263.547,422.063Z" transform="translate(-119.8 -55.892)"/></g><path class="h" d="M506.708,152.4a228.317,228.317,0,0,1,15.352,82.689c0,126.128-102.228,228.53-228.53,228.53A227.631,227.631,0,0,1,128.5,393.142c33.146,85.306,116.01,145.841,213,145.841,126.128,0,228.53-102.228,228.53-228.53C570.209,249.22,545.96,193.57,506.708,152.4Z" transform="translate(-113.148 -81.922)"/></g><g transform="translate(388.152 101.99)"><path class="i" d="M480.134,214.488c-8.9-48.672-43.613-26.691-43.613-26.691-48.5-45.706-56.871,13.433-56.871,13.433-22.33-8.374-28.435,13.433-28.435,13.433-30.878-7.5-40.3,8.723-42.915,23.376H514.326C508.395,202.626,480.134,214.488,480.134,214.488Z" transform="translate(-308.3 -170.464)"/></g><g transform="translate(0 153.225)"><path class="i" d="M193.959,227.513c-5.582-30.529-27.389-16.747-27.389-16.747-30.529-28.784-35.762,8.374-35.762,8.374-13.956-5.234-17.968,8.374-17.968,8.374-19.364-4.71-25.3,5.408-27.04,14.828H215.242C211.928,220.012,193.959,227.513,193.959,227.513Z" transform="translate(-85.8 -199.833)"/></g><g transform="translate(46.404 15.042)"><path class="i" d="M250.041,156c-7.152-38.9-34.89-21.457-34.89-21.457-38.9-36.635-45.532,10.641-45.532,10.641-17.794-6.629-22.853,10.642-22.853,10.642-24.6-5.931-32.273,6.978-34.367,18.841H277.256C272.72,146.4,250.041,156,250.041,156Z" transform="translate(-112.4 -120.622)"/></g><ellipse class="j" cx="92.284" cy="46.055" rx="92.284" ry="46.055" transform="translate(74.771 177.762) rotate(-52.047)"/></g><g transform="translate(103.449 280.238)"><g transform="translate(425.417 56.696)"><ellipse class="a" cx="60.185" cy="11.863" rx="60.185" ry="11.863" transform="translate(82.757 214.225)"/><g transform="translate(82.711 124.034)"><path class="k" d="M409.66,372.334l13.607-30.7L405.648,327.5l-14.479,39.775s-3.489,7.5,10.293,17.271l27.214,26.516,8.548-4.012C437.223,406.875,418.906,381.231,409.66,372.334Z" transform="translate(-390.774 -327.5)"/><path class="l" d="M420.641,377.012l2.268,2.791-20.585,11.688-.523,2.617,35.937-5.059-5.059-12.037L429.014,373Z" transform="translate(-382.565 -293.625)"/><path class="i" d="M413,377.463l1.57,1.745,9.769-2.791L421.9,373.8Z" transform="translate(-374.227 -293.029)"/><path class="m" d="M402.323,389.779,401.8,392.4l35.937-5.059L432.678,375.3l-9.769,2.791Z" transform="translate(-382.565 -291.913)"/><path class="n" d="M437.737,383.466l-1.221-2.966-34.192,5.408-.523,2.617Z" transform="translate(-382.565 -288.041)"/></g><path class="m" d="M399.1,329.693l10.467,28.959,7.5-17.271-17.1-13.782Z" transform="translate(-301.864 -203.391)"/><path class="o" d="M350.765,284.765s-.872-2.093,0-7.676c0,0-1.4-11.863,1.744-7.85V266.8s-2.617-4.361-1.047-6.629l1.047,1.047a4.753,4.753,0,0,1,0-3.315,22.285,22.285,0,0,1,1.919,3.663l.7,4.536.349,5.234s.7,9.595,1.4,10.99c0,0,18.143,10.293,23.2,11.514l1.047,8.723Z" transform="translate(-338.138 -255.283)"/><path class="i" d="M379.44,292.136l-1.047-8.723c-5.233-1.221-23.2-11.514-23.2-11.514l-2.791,4.361Z" transform="translate(-336.632 -244.86)"/><path class="p" d="M353.8,277.21l25.3,14.828-.523-8.548c-4.187-1.047-17.619-8.2-22.5-10.99Z" transform="translate(-335.59 -244.414)"/><g transform="translate(42.132 25.333)"><path class="o" d="M378.1,291.846s5.931.174,10.293,3.14l4.885-5.582-6.629-6.8-8.2,2.442Z" transform="translate(-359.63 -262.227)"/><path class="i" d="M388.848,285.793l-1.57-2.093-6.978,7.327,1.4,2.268,6.629-3.838Z" transform="translate(-357.993 -261.408)"/><path class="l" d="M396.246,286.584s-2.966-20.76-20.062-14.479c0,0-16.224,4.536-4.187,29.308l2.966-1.4s4.012,6.455,7.5,4.71L395.2,292.341Z" transform="translate(-367.483 -270.922)"/><path class="o" d="M390.619,280.652,381.9,273.5l-13.258,4.012c-1.4,3.838-1.745,9.246,1.4,17.445Z" transform="translate(-367.439 -269.002)"/><path class="k" d="M396.275,286.584s-2.966-20.76-20.062-14.479c0,0-11.165,3.14-8.2,18.143,0,0,1.919,1.221,7.676-1.221,0,0,3.489.7,5.757,5.059l2.093-1.221s-2.617-6.28,0-8.374l3.489.7s2.268,5.408,6.28,5.582l2.617-.7Z" transform="translate(-367.513 -270.922)"/><path class="m" d="M381.307,293.432l2.093-1.221s-2.617-6.28,0-8.374l3.489.7s2.268,5.408,6.28,5.582l2.617-.7.523-3.489s-1.4-10.118-8.2-14.13c-5.408,11.339-16.049,14.3-20.411,15.177a13.468,13.468,0,0,0,.349,2.617s1.919,1.221,7.676-1.221A9.7,9.7,0,0,1,381.307,293.432Z" transform="translate(-367.373 -270.268)"/><ellipse class="l" cx="2.791" cy="4.536" rx="2.791" ry="4.536" transform="translate(12.732 12.847) rotate(-22.266)"/></g><path class="k" d="M377,302l73.444,113.567L491.09,446.79l9.071-5.408-33.669-33.669-27.912-65.244-37.332-51.812L391.3,284.9Z" transform="translate(-318.318 -235.182)"/><path class="q" d="M391.3,284.9,377,302l38.554,59.488h0a41.048,41.048,0,0,0,23.027-19.19l-37.332-51.812Z" transform="translate(-318.318 -235.182)"/><path class="p" d="M389.735,300.42a12.733,12.733,0,0,0-7.327-9.42L377,297.455l3.14,4.885A23.284,23.284,0,0,0,389.735,300.42Z" transform="translate(-318.318 -230.64)"/><path class="l" d="M350.756,282.219s28.959,11.514,31.4,17.794c0,0,19.015,8.2,29.657,8.2,0,0,11.514,1.221,7.676,14.654,0,0-2.966,8.723-20.585-1.4L374.83,308.561s-23.376-16.922-28.959-24.074c0,0-4.187-3.663-1.745-14.13,0,0,0-10.293,1.745-9.071,0,0-.872-4.885,1.221-4.885a43.119,43.119,0,0,1,2.617,5.931l.174,3.838a22.676,22.676,0,0,1,1.221,5.582A45.367,45.367,0,0,1,350.756,282.219Z" transform="translate(-343.361 -256.4)"/><path class="i" d="M417.574,311.847c3.838-13.433-7.676-14.654-7.676-14.654-10.467,0-29.657-8.2-29.657-8.2-2.268-6.455-31.4-17.794-31.4-17.794l-3.14,4.361c7.5,7.85,27.214,22.155,27.214,22.155l24.074,12.909C414.608,320.744,417.574,311.847,417.574,311.847Z" transform="translate(-341.62 -245.381)"/><path class="q" d="M346.8,277.008c8.548,8.025,25.3,20.236,25.3,20.236l24.074,12.909c17.62,10.293,20.585,1.4,20.585,1.4,3.838-13.433-7.676-14.654-7.676-14.654-10.467,0-29.657-8.2-29.657-8.2-1.919-5.408-23.2-14.479-29.657-17.1Z" transform="translate(-340.802 -245.084)"/><path class="l" d="M450.143,380.008l2.442,2.268-20.236,10.99L432,395.534l34.89-2.268,1.745-9.246-9.42-9.42Z" transform="translate(-277.37 -168.4)"/><path class="i" d="M443,380.508l1.4,1.4,12.037-2.268L451.9,375.1Z" transform="translate(-269.18 -168.027)"/><path class="m" d="M464.622,377.7l-12.037,2.268-20.236,10.99L432,393.226l34.89-2.268,1.745-9.246Z" transform="translate(-277.37 -166.092)"/><path class="n" d="M466.89,386.566l.523-2.966h0l-35.065,2.966L432,388.834Z" transform="translate(-277.37 -161.699)"/></g><g transform="translate(118.452)"><ellipse class="a" cx="93.68" cy="11.863" rx="93.68" ry="11.863" transform="translate(0 328.665)"/><g transform="translate(20.585)"><rect class="p" width="90.191" height="4.71" transform="translate(23.376 280.516)"/><path class="m" d="M246.452,384.7H239.3l2.268,4.71h6.455v-1.57Z" transform="translate(-134.455 -104.184)"/><rect class="m" width="44.485" height="4.71" transform="translate(29.308 193.117)"/><g transform="translate(4.536 154.253)"><path class="q" d="M235.88,316.3l-2.268,8.723L188.6,498.771h-6.8l47.45-183,.349-1.047a3.232,3.232,0,0,1,4.012-2.268,3.752,3.752,0,0,1,2.093,1.57c0,.174.174.349.174.523A2.912,2.912,0,0,1,235.88,316.3Z" transform="translate(-181.8 -312.323)"/></g><path class="p" d="M212.761,314.319c0-.174-.174-.349-.174-.523l-.7-1.4a3.175,3.175,0,0,0-1.919,2.268l-.349,1.047L208.4,320.25l2.268,4.71,2.093,4.536,1.221-4.536,1.4-5.234Z" transform="translate(-157.46 -158.011)"/><rect class="m" width="28.784" height="3.14" transform="translate(67.338 207.422)"/><rect class="m" width="28.784" height="3.14" transform="translate(76.758 228.181)"/><rect class="m" width="28.784" height="3.14" transform="translate(86.179 249.115)"/><rect class="m" width="28.784" height="3.14" transform="translate(95.773 269.875)"/><rect class="m" width="28.784" height="3.14" transform="translate(105.194 290.634)"/><rect class="m" width="28.784" height="3.14" transform="translate(114.614 311.568)"/><path class="o" d="M239.01,249.645c.349-1.745-1.4-6.629-3.838-5.582-.7.349-.872.872-.872,1.745a7.141,7.141,0,0,0,1.919,4.536C237.44,251.215,238.836,251.215,239.01,249.645Z" transform="translate(-138.178 -208.998)"/><path class="o" d="M246.319,249.645c-.349-1.745,1.4-6.629,3.838-5.582.7.349.872.872.872,1.745a7.141,7.141,0,0,1-1.919,4.536C248.063,251.215,246.668,251.215,246.319,249.645Z" transform="translate(-129.263 -208.998)"/><path class="l" d="M259.87,246.835a12.735,12.735,0,0,0-25.47,0,12.284,12.284,0,0,0,1.919,6.629h0a31.63,31.63,0,0,1,3.838,12.735h12.909a116.181,116.181,0,0,1,4.885-12.735h0A12.284,12.284,0,0,0,259.87,246.835Z" transform="translate(-138.103 -216.306)"/><path class="l" d="M274.9,260.79s1.047-4.885,1.57-6.28a14.657,14.657,0,0,1,4.885-4.71l1.221,4.536C282.576,254.161,278.389,261.139,274.9,260.79Z" transform="translate(-107.951 -204.617)"/><g transform="translate(172.531 5.931)"><path class="q" d="M279.844,283.647H278.1V253.642l28.261-16.922v-7.85H278.972V227.3h28.959v10.293l-28.087,16.922Z" transform="translate(-278.1 -227.3)"/></g><g transform="translate(170.961 38.379)"><path class="p" d="M279.642,269.8a2.385,2.385,0,0,1-2.442-2.442V248.342a2.442,2.442,0,1,1,4.885,0v19.015A2.385,2.385,0,0,1,279.642,269.8Z" transform="translate(-277.2 -245.9)"/></g><path class="k" d="M218.8,272s3.315,8.548,15.352,10.467C234.152,282.468,233.1,265.721,218.8,272Z" transform="translate(-149.718 -189.137)"/><path class="k" d="M264.884,294.089s-5.234,104.845-6.978,123.337H247.265L236.1,292.345S251.8,280.482,264.884,294.089Z" transform="translate(-136.838 -176.51)"/><path class="m" d="M237.1,302l1.744,19.538A76.561,76.561,0,0,0,255.766,300.6Z" transform="translate(-136.093 -166.796)"/><path class="q" d="M230.568,255.243l11.863-4.012s12.909-2.268,19.015,0l16.224,7.85s.872,13.607,3.489,22.5l-10.642,40.3-36.286-2.093L228.3,277.747Z" transform="translate(-142.645 -204.303)"/><path class="p" d="M236.5,263l-8.025,3.14-.174,1.919,3.489,24.249C238.593,279.4,236.5,263,236.5,263Z" transform="translate(-142.645 -194.79)"/><path class="k" d="M282.9,292.268s3.315,23.551-47.276,31.576l9.071,50.067H234.055L211.9,314.074l34.541-16.922.174-7.152Z" transform="translate(-154.855 -174.688)"/><path class="m" d="M232.317,338.1,214,343.333V346.3h29.657l-.7-8.2Z" transform="translate(-153.291 -138.878)"/><path class="i" d="M243.657,344.066l-.174-2.966H214v2.966Z" transform="translate(-153.291 -136.644)"/><path class="m" d="M250.392,362,231.9,367.234V370.2h29.657l-.7-8.2Z" transform="translate(-139.965 -121.084)"/><path class="i" d="M261.557,367.966,261.382,365H231.9v2.966Z" transform="translate(-139.965 -118.85)"/><path class="l" d="M252.531,253.1s6.8,6.978,2.442,24.074L243.11,303.516l-23.376,34.367H198.8s6.978-8.2,17.968-7.327C216.768,330.556,243.983,259.206,252.531,253.1Z" transform="translate(-164.608 -202.16)"/><path class="q" d="M218.8,285.024s11.339-1.047,15.352,10.467c0,0,19.19-30.529,3.489-42.391C237.641,253.1,229.267,255.368,218.8,285.024Z" transform="translate(-149.718 -202.16)"/><path class="l" d="M264.494,266.571l9.42,1.57,10.118-6.978s3.489-8.2,8.9-11.863c0,0,4.71,2.617,1.919,12.037l-6.8,4.187-11.339,13.607s-14.479.523-14.3.872S264.494,266.571,264.494,266.571Z" transform="translate(-117.258 -204.99)"/><path class="q" d="M257.624,255.2l14.828,6.455s4.361,10.293-.872,15.875l-10.467.174S250.646,266.19,257.624,255.2Z" transform="translate(-122.599 -200.597)"/><path class="p" d="M274.315,278.3c-12.735,12.56-34.89,15.526-42.915,16.049l.7,4.536,36.286,2.093Z" transform="translate(-140.337 -183.399)"/><path class="p" d="M271.435,266.193A36.914,36.914,0,0,1,260.1,264.1c-.523,2.268-1.4,6.978-1.4,6.978l10.467-.174A9.9,9.9,0,0,0,271.435,266.193Z" transform="translate(-120.012 -193.971)"/><path class="r" d="M309.713,233.669a3.312,3.312,0,0,1-3.315,3.315H269.415a3.312,3.312,0,0,1-3.315-3.315v-6.106a4.875,4.875,0,0,1,2.093-3.663H305c3.14.349,4.536,1.919,4.536,3.663v6.106Z" transform="translate(-114.503 -223.9)"/><path class="s" d="M306.224,230.215H269.415A3.312,3.312,0,0,1,266.1,226.9v4.536a3.312,3.312,0,0,0,3.315,3.315h36.809a3.312,3.312,0,0,0,3.315-3.315V226.9A3.2,3.2,0,0,1,306.224,230.215Z" transform="translate(-114.503 -221.666)"/><path class="k" d="M257.951,253.464a12.284,12.284,0,0,0,1.919-6.629,12.735,12.735,0,0,0-25.47,0,12.284,12.284,0,0,0,1.919,6.629h0a12.051,12.051,0,0,1,.872,1.745,26.765,26.765,0,0,1,3.838,4.361h12.212c1.221-1.047,4.012-4.187,4.012-4.187a11.513,11.513,0,0,1,.7-1.919Z" transform="translate(-138.103 -216.306)"/><path class="m" d="M257.079,236.8c-.523,1.57-.7,3.489-1.047,4.536a12.15,12.15,0,0,1-3.838,4.536,16.378,16.378,0,0,1-10.642,2.442,14.007,14.007,0,0,1-7.152-2.966,12.029,12.029,0,0,0,1.919,6.106h0a12.053,12.053,0,0,1,.872,1.744,26.768,26.768,0,0,1,3.838,4.361h12.212c1.221-1.047,4.012-4.187,4.012-4.187.349-.7.523-1.221.872-1.919h0a12.285,12.285,0,0,0,1.919-6.629A14.069,14.069,0,0,0,257.079,236.8Z" transform="translate(-138.103 -214.296)"/><g transform="translate(27.738 140.782)"><path class="q" d="M311.982,504.346h-7.152L223.884,330.593l-4.361-9.246-4.71-10.118h-16.4a3.315,3.315,0,1,1,0-6.629h18.492a3.224,3.224,0,0,1,2.966,1.919l5.931,12.909c0,.174.174.349.174.523Z" transform="translate(-195.1 -304.6)"/></g><g transform="translate(21.806 135.722)"><path class="k" d="M198.5,301.7l-6.8,6.629v5.234h32.8L218.914,301.7Z" transform="translate(-191.7 -301.7)"/></g><path class="m" d="M224.5,310.733l-2.442-5.233H191.7v5.233Z" transform="translate(-169.894 -163.148)"/><path class="p" d="M213.552,308.5H206.4l2.268,5.059h7.327Z" transform="translate(-158.949 -160.915)"/><rect class="k" width="16.573" height="3.14" transform="translate(0 337.387)"/><rect class="k" width="16.573" height="3.14" transform="translate(131.885 337.387)"/><path class="n" d="M265.816,420.65l-3.664-7.85H255l3.663,7.85Z" transform="translate(-122.767 -83.263)"/><path class="n" d="M189.1,420.65l2.093-7.85h-6.8l-2.093,7.85Z" transform="translate(-176.892 -83.263)"/></g></g><g transform="translate(0 87.279)"><ellipse class="a" cx="48.323" cy="11.863" rx="48.323" ry="11.863" transform="translate(0 179.804)"/><g transform="translate(2.966)"><rect class="m" width="15.352" height="10.118" transform="translate(102.054 30.824)"/><path class="l" d="M160.8,314.363s.523-5.059.872-6.455a14.129,14.129,0,0,1,4.361-5.408l1.744,4.361C167.778,307.036,164.463,314.363,160.8,314.363Z" transform="translate(-56.828 -252.661)"/><g transform="translate(107.81 44.605)"><path class="p" d="M164.919,318.166A1.936,1.936,0,0,1,163,316.247V301.419a1.919,1.919,0,0,1,3.838,0v14.828A1.936,1.936,0,0,1,164.919,318.166Z" transform="translate(-163 -299.5)"/></g><path class="t" d="M166.838,301.319a1.919,1.919,0,1,0-3.838,0v2.268h3.838Z" transform="translate(-55.19 -254.969)"/><path class="l" d="M169.667,301.9c-5.059,4.361-7.676,13.084-7.676,13.084l-2.791,2.442c3.489,0,4.885,3.14,4.536,5.757L166.527,319l6.28-5.059C174.377,304.168,169.667,301.9,169.667,301.9Z" transform="translate(-58.019 -253.108)"/><path class="i" d="M159.5,311.019l1.57-1.919s2.966.349,5.757,5.234l-2.268,2.093Z" transform="translate(-57.795 -247.747)"/><path class="u" d="M101.3,314.4a247.5,247.5,0,0,0,23.551,50.94l5.234,61.058,27.738-.872v-3.663l-20.411-4.536,3.489-56.871-21.632-42.566Z" transform="translate(-101.126 -243.801)"/><path class="m" d="M145.835,377.936,125.425,373.4H117.4l.7,9.071,27.738-.872Z" transform="translate(-89.139 -199.876)"/><path class="q" d="M145.612,377l-27.912.872.174,1.919,27.738-.872Z" transform="translate(-88.916 -197.196)"/><path class="m" d="M112.6,326.4a286.016,286.016,0,0,0,19.19,35.588l.7-10.467-6.8-13.258Z" transform="translate(-92.713 -234.867)"/><g transform="translate(60.36)"><path class="o" d="M151.326,295.246a22.972,22.972,0,0,0-10.467,3.14L135.8,292.8l6.629-6.8,8.374,2.442Z" transform="translate(-135.8 -264.945)"/><g transform="translate(5.059)"><path class="l" d="M138.7,289.926s3.14-21.109,20.411-14.828c0,0,16.573,4.536,4.187,29.831l-3.14-1.57s-4.187,6.629-7.676,4.71L139.4,295.509Z" transform="translate(-138.7 -273.931)"/><path class="o" d="M141.9,283.927l8.9-7.327,13.607,4.187c1.57,3.838,1.745,9.595-1.57,17.794Z" transform="translate(-136.318 -271.944)"/><path class="k" d="M138.7,289.926s3.14-21.109,20.411-14.828c0,0,11.339,3.14,8.374,18.492,0,0-1.919,1.221-7.85-1.221,0,0-3.489.7-5.757,5.233l-2.093-1.221s2.617-6.455,0-8.548l-3.489.7s-2.268,5.408-6.28,5.582l-2.617-.7Z" transform="translate(-138.7 -273.931)"/><g transform="translate(0 6.575)"><path class="m" d="M146.723,283.615c1.745,2.442-.523,8.025-.523,8.025l2.093,1.221c2.268-4.536,5.757-5.234,5.757-5.234,5.931,2.442,7.676,1.221,7.85,1.221a23.756,23.756,0,0,0,.174-8.548c-2.093.872-4.012,1.745-6.106,2.442A22.319,22.319,0,0,1,146.723,283.615Z" transform="translate(-133.116 -275.764)"/><path class="m" d="M148.295,285.725l2.093-.523a14.56,14.56,0,0,1-5.059-1.919,8.953,8.953,0,0,1-3.14-5.582,26.429,26.429,0,0,0-3.489,9.42l.523,3.489,2.617.7C146.027,291.133,148.295,285.725,148.295,285.725Z" transform="translate(-138.7 -277.7)"/></g><ellipse class="l" cx="4.71" cy="2.966" rx="4.71" ry="2.966" transform="matrix(0.378, -0.926, 0.926, 0.378, 7.303, 19.682)"/></g></g><path class="i" d="M134.4,289.991l5.059-2.791,9.944,10.293-2.442,1.919Z" transform="translate(-76.482 -264.052)"/><path class="u" d="M107.5,316.2s6.455,19.713,35.239,53.382l1.919,69.431h30.878V435.7l-22.155-5.757,9.071-65.244-23.9-46.753Z" transform="translate(-96.51 -242.461)"/><path class="v" d="M101.3,333.534s10.816-33.32,57.743-44.834c0,0,11.863,4.012,18.143,12.909,0,0-7.152,11.863-27.912,28.086l-4.187,12.56C144.913,342.256,109.848,350.8,101.3,333.534Z" transform="translate(-101.126 -262.935)"/><path class="w" d="M144.987,333.248l4.187-12.56a159.266,159.266,0,0,0,19.19-17.271l-2.442-2.617-19.887,15.875a15.891,15.891,0,0,1-6.8-5.059,16.5,16.5,0,0,0,5.408,9.071l-3.838,9.595s-27.563,4.885-39.6-5.757C109.923,341.8,144.987,333.248,144.987,333.248Z" transform="translate(-101.2 -253.927)"/><path class="v" d="M149.614,296.171s13.258,19.538,19.19,29.657l6.629-6.28s4.012.872,5.757,6.28l-11.863,11.514s-4.361,4.187-15.875-9.246L138.1,309.6C138.449,309.6,136.181,294.252,149.614,296.171Z" transform="translate(-73.728 -257.497)"/><path class="m" d="M159.652,387.157,137.5,381.4h-8.9l.174,9.071h30.878Z" transform="translate(-80.801 -193.92)"/><path class="q" d="M128.7,388.015h30.878V384.7H128.7Z" transform="translate(-80.726 -191.463)"/><rect class="p" width="16.049" height="7.676" transform="translate(101.705 39.197)"/><path class="t" d="M175.549,298.747,159.5,299.793V297.7h16.049Z" transform="translate(-57.795 -256.235)"/><path class="r" d="M159.774,294.666c.174,0,.523.174.7.174a2.131,2.131,0,0,1,1.57.7,5.544,5.544,0,0,1,.523,1.57c1.047,1.57,1.57-.349,1.919-1.047a2.483,2.483,0,0,1,2.791-.872c.872.523.174,2.093,1.047,2.617,1.221.872,1.57-1.745,1.57-2.268.174-.872.7-2.268,1.919-1.919,1.047.174.872,1.919,1.221,2.791.174.349.349,1.047.872.7.349-.349.174-1.221.174-1.57a1.981,1.981,0,0,1,.523-1.4l.349-.349V291.7H159.6v2.966Z" transform="translate(-57.721 -260.702)"/></g></g><g transform="translate(307.033 151.285)"><ellipse class="a" cx="48.323" cy="11.863" rx="48.323" ry="11.863" transform="translate(0 200.756)"/><g transform="translate(15.351)"><g transform="translate(0 19.232)"><path class="u" d="M321.339,365.624s4.885,15.352-5.408,57.743l1.4,49.021h-5.931s-11.165-24.249-9.769-46.753c0,0-8.374-35.239-4.361-56.522C297.264,369.113,308.255,358.646,321.339,365.624Z" transform="translate(-275.457 -290.689)"/><path class="m" d="M296.2,381.3c.175,9.769,2.791,18.143,6.8,24.074,2.093-9.595.523-22.155,1.919-40.3l-.523-.872a25.008,25.008,0,0,0-7.152,4.361c-.174.7-.174,1.4-.349,2.093A66.707,66.707,0,0,0,296.2,381.3Z" transform="translate(-275.439 -289.963)"/><path class="u" d="M288.487,357.8s-11.165,22.853,2.966,65.593c0,0-6.28,9.42,0,56.347h5.408l7.676-55.65s7.676-33.32,9.42-56.173Z" transform="translate(-284.299 -294.728)"/><path class="o" d="M330.647,331s5.408,4.885-5.582,35.588l-1.744,32.8,1.744,6.28-1.744,7.327a6.321,6.321,0,0,1-1.221-6.455s-5.582,3.14-7.327-.523l2.442-7.676L313.9,368.507l6.28-30.878C320.18,337.455,321.75,331,330.647,331Z" transform="translate(-262.262 -314.68)"/><g transform="translate(15.876 82.913)"><path class="q" d="M338.757,404.459l-3.14-.872c2.966-11.514,2.268-20.062-2.093-25.3-5.582-6.629-15.352-5.757-15.526-5.757-19.713.7-21.283,28.261-21.283,28.61l-3.315-.174c0-.349,1.57-30.878,24.249-31.75.349,0,11.514-1.047,18.143,6.8C341.2,382.478,342.072,391.9,338.757,404.459Z" transform="translate(-293.4 -369.173)"/></g><path class="o" d="M310.478,369.7l-2.966.872L303.5,369.7a8.552,8.552,0,0,1,0,4.012h0v.872c.349,1.57,1.745,1.57,3.14,1.57a10.176,10.176,0,0,1,4.012.523,3.6,3.6,0,0,0,3.489-.523c.349-.349.872-1.047,1.047-1.221l2.093-2.791Z" transform="translate(-270.005 -285.868)"/><path class="i" d="M284.9,357.8" transform="translate(-283.852 -294.728)"/><path class="l" d="M312.363,327.847s16.4-19.19,39.775,9.944c0,0-1.221,7.85-8.374,19.364,0,0-4.012,8.374-11.514,8.723,0,0-4.885,20.585-2.442,30.529,0,0-25.819,15.352-45.008-11.863,0,0,10.118-15.352,13.956-28.087C298.756,356.631,302.071,338.662,312.363,327.847Z" transform="translate(-283.927 -321.645)"/><path class="o" d="M321.226,376.465c-.523-.349-1.047.174-1.4.349.523-1.221-.349-3.663-1.919-3.315h-.174c.349-.872-.349-1.919-1.221-1.57-.7.174-1.221,1.047-1.57,1.57a2.591,2.591,0,0,0-.7,2.442,1.729,1.729,0,0,0,1.919,1.4,2.075,2.075,0,0,0,.7,1.919c.523.349,1.047.523,1.4.174a2.377,2.377,0,0,0,.349,2.966c1.047.872,1.57,0,2.093-.7a9.89,9.89,0,0,0,1.4-2.268C321.75,378.559,322.1,376.988,321.226,376.465Z" transform="translate(-262.087 -284.26)"/><path class="o" d="M321.67,374.815l-1.745,7.327a5.938,5.938,0,0,1-1.221-6.455s.174-3.489-.349-3.315c.174-.872.174,1.919,1.047,1.4a8.145,8.145,0,0,1,1.745-.872h0Z" transform="translate(-259.042 -284.005)"/><path class="v" d="M343.864,357.258a64.212,64.212,0,0,0,4.012-7.327v-.7c.523-2.966.349-6.106.523-9.071,0-2.093.349-4.012.523-6.106A19.9,19.9,0,0,0,347,332.137v1.57c0,4.536.523,9.769-1.4,13.956-1.221,2.966-3.14,6.8-6.8,6.978-1.744.175-3.838.175-5.233-1.221a6.633,6.633,0,0,1-1.745-5.931c.7-4.187,1.221-8.2,1.57-12.386.174-3.663.872-9.595-1.745-12.211a3.061,3.061,0,0,0-.872-.7,18.737,18.737,0,0,0-6.106-.349h.349c3.489.872,5.757,4.012,4.71,7.676a35.681,35.681,0,0,1-5.582,10.467c-2.617,3.489-5.931,7.327-10.641,6.106-4.361-1.047-5.233-5.408-5.757-9.246a13.209,13.209,0,0,1-.174-2.617,68.333,68.333,0,0,0-8.723,22.33c-3.664,12.735-13.956,28.087-13.956,28.087,19.015,27.214,45.008,11.863,45.008,11.863-2.442-9.944,2.442-30.529,2.442-30.529C339.852,365.632,343.864,357.258,343.864,357.258Z" transform="translate(-283.852 -321.574)"/><path class="w" d="M329.734,381.053c-2.442-9.769,2.442-30.354,2.442-30.529-1.57-1.221-3.489-1.919-5.059-3.14a38.314,38.314,0,0,1-3.14-2.442,17.361,17.361,0,0,0-2.617-2.442c-.523,1.919,0,4.012-.174,5.931-.174,1.745-1.57,3.14-2.617,4.536-2.268,2.966-2.791,6.28-4.012,9.944-1.745,4.885-6.455,12.56-12.386,12.386-5.582-.175-11.514-5.059-15.177-9.42-1.221,2.093-2.093,3.315-2.093,3.315C303.915,396.405,329.734,381.053,329.734,381.053Z" transform="translate(-283.852 -306.119)"/><path class="m" d="M333.2,327.191c-2.442,1.919-.174,8.374.349,10.642,1.047,3.315,2.617,7.5,1.745,11.165-1.221,4.536-6.455,4.536-9.769,2.268s-4.187-5.582-4.361-9.246c-.174-2.268.174-4.71,0-6.978-.174-2.442-1.4-4.012-1.744-6.106-.7-5.408,9.595-6.629,12.735-3.663" transform="translate(-258.181 -320.118)"/><path class="l" d="M309.424,330.347s5.931-12.56,14.13-4.361c0,0,4.187,5.582-4.71,18.841,0,0-11.514,16.4-13.084,23.028,0,0,8.025,21.632,11.514,27.738,0,0,5.931,6.629,7.676,10.816,0,0-17.968,5.757-13.084-7.5L293.2,368.2S297.212,352.677,309.424,330.347Z" transform="translate(-277.673 -320.482)"/><path class="p" d="M290.9,388.2s0,14.828,18.143,27.912l5.234-14.828-8.025-10.118Z" transform="translate(-279.385 -272.095)"/><path class="q" d="M342.537,403.439l-20.76,13.607-.174.174-5.234,3.489-2.617,1.744-4.71,3.14c-5.408-19.19-18.143-27.912-18.143-27.912L324.569,375.7C324.394,375.527,337.129,384.249,342.537,403.439Z" transform="translate(-279.385 -281.402)"/><path class="l" d="M289.868,427.774s-.523,4.885-2.268,6.978c0,0-3.663,4.71,3.489,4.71h7.85s4.885-2.442-.523-5.931a7.164,7.164,0,0,1-2.966-5.931h-5.582Z" transform="translate(-282.54 -242.761)"/><path class="l" d="M310.831,425.874l.523,4.71s18.317,3.838,19.19,6.28H306.3l.7-5.582L304.9,425.7h5.931Z" transform="translate(-268.962 -244.176)"/><path class="l" d="M287.4,417.9c.349,5.059,1.047,10.816,1.919,17.1h5.408l2.268-17.1Z" transform="translate(-281.991 -249.983)"/><path class="l" d="M307.059,431.682h5.931l-.349-13.781H302C304.617,426.1,307.059,431.682,307.059,431.682Z" transform="translate(-271.121 -249.983)"/><path class="n" d="M298.591,431.8a1.362,1.362,0,0,1-.7.7c-1.919,1.221-4.885.523-6.8,0a3.342,3.342,0,0,1-2.442-2.093,23.363,23.363,0,0,1-1.047,2.093s-3.663,4.71,3.489,4.71h7.85C298.765,437.552,303.3,435.11,298.591,431.8Z" transform="translate(-282.54 -240.677)"/><path class="n" d="M319.133,429.6c0,.523,0,.872-.523,1.221a2.869,2.869,0,0,1-1.745.349c-1.221,0-2.442-.349-3.838-.349h-6.978l-.349,3.314h24.249C329.6,432.566,324.017,430.821,319.133,429.6Z" transform="translate(-268.367 -241.272)"/></g><path class="q" d="M363.313,410.375l-15.177-4.361-34.89,1.919-9.246.349,2.617-1.744,5.234-3.315.349-.174,6.8-.523,26.516-2.268,3.489-5.757Z" transform="translate(-269.632 -248.173)"/><path class="p" d="M319,399.1l-5.757,5.408-9.246.349,2.617-1.744,5.234-3.315.349-.174Z" transform="translate(-269.632 -244.748)"/><path class="l" d="M323.688,318.6l6.455,11.339,3.664,7.327s-4.187-6.28-13.258.872L312,324.88C312,324.706,320.2,327.5,323.688,318.6Z" transform="translate(-263.676 -304.681)"/><g transform="translate(60.012)"><path class="l" d="M318.7,324.54s5.931-20.585,22.33-11.688c0,0,12.56,4.187,1.744,23.725-.872,1.4-.7,4.71-1.744,6.455l-2.791-1.919s-5.059,5.931-8.2,3.664l-11.165-14.3Z" transform="translate(-318.7 -310.621)"/></g><path class="k" d="M352.049,323.118A15.927,15.927,0,0,1,336,326.607a19.708,19.708,0,0,1-7.676,6.106,9.831,9.831,0,0,1-2.093.7c-3.838,1.047-8.548.7-14.13-2.617,0,0,8.2,2.791,11.688-6.28,0,0,5.931-20.411,22.33-11.688C345.943,312.651,352.224,314.919,352.049,323.118Z" transform="translate(-263.602 -310.594)"/><path class="m" d="M349.507,313.3a13.465,13.465,0,0,1-.349,2.617c-1.221,4.885-5.234,6.629-9.769,6.455-4.012,0-8.723,0-10.641-4.361a13.988,13.988,0,0,1-.872-3.663,27.191,27.191,0,0,0-4.187,8.025c-3.489,9.071-11.688,6.28-11.688,6.28,5.582,3.489,10.467,3.663,14.131,2.617.7-.174,1.4-.523,2.093-.7a19.708,19.708,0,0,0,7.676-6.106,15.67,15.67,0,0,0,16.049-3.489A10.362,10.362,0,0,0,349.507,313.3Z" transform="translate(-263.676 -308.627)"/><ellipse class="l" cx="4.71" cy="2.966" rx="4.71" ry="2.966" transform="translate(66.855 18.63) rotate(-59.655)"/></g><g transform="translate(105.019 101.668)"><path class="x" d="M373.556,411.466c5.234-17.794-12.56-29.308-19.364-42.566.174,6.8-1.745,13.084.174,19.887,1.919,6.978,4.71,11.863,4.012,19.364-.7,6.629-2.093,14.654.349,21.108,1.745,4.361,4.885,9.071,7.676,13.084,1.4-3.664,4.187-6.978,4.885-11.514.523-3.14-.7-7.152-.349-10.293C371.114,416.874,372.684,414.78,373.556,411.466Z" transform="translate(-322.442 -368.9)"/><g transform="translate(65.07 59.126)"><path class="y" d="M409.286,405.422c-3.315-2.442-7.5-2.442-11.514-2.617-5.059-.174-8.025,1.4-11.514,5.233-1.221,1.221-2.093,3.14-3.663,4.187-1.745,1.221-4.187,1.221-5.931,2.617-2.617,2.268-2.966,5.931-3.664,9.071,2.966-.349,6.629,0,8.025-.349,4.361-.7,6.8-3.838,9.246-7.327,1.57-2.093,2.093-2.966,4.71-3.315a37.247,37.247,0,0,1,6.28.174,28.8,28.8,0,0,0,12.211-.7,7.076,7.076,0,0,1,5.059,1.221C417.136,410.307,412.077,407.516,409.286,405.422Z" transform="translate(-373 -402.793)"/></g><g transform="translate(61.033 32.797)"><path class="x" d="M396.18,392.236a40.51,40.51,0,0,0-5.059,8.9c-1.221,2.966-2.791,6.455-5.408,8.374-2.093,1.57-5.234,1.745-7.5,2.966-6.28,2.966-8.723,11.514-6.978,18.317,3.315-2.268,5.757-6.106,9.071-8.374,4.012-2.791,6.106-7.327,9.944-10.118,4.187-3.14,8.374-3.838,11.165-8.723a22.131,22.131,0,0,0,2.617-12.56c0-.7-.349-1.919-.349-3.315-.349.174-.523.349-.872.523C400.193,389.444,398.1,389.619,396.18,392.236Z" transform="translate(-370.686 -387.7)"/></g><g transform="translate(0 37.681)"><path class="y" d="M361.693,406.724a26.529,26.529,0,0,0-9.595-12.56c-5.059-3.663-10.293-3.663-16.4-3.663.872,3.838,1.221,8.025,3.663,10.642,3.489,4.012,8.374,4.012,11.165,9.595s3.315,11.514,9.071,15.526c4.885,3.489,11.339,3.14,16.049,6.978-1.4-5.059-1.57-10.467-5.233-14.828C366.927,413.876,363.961,412.306,361.693,406.724Z" transform="translate(-335.7 -390.5)"/></g><g transform="translate(9.769 45.138)"><path class="p" d="M359.792,417.846c2.617,2.617,5.582,4.71,8.025,6.978a24.93,24.93,0,0,1,5.931,7.152h0c.872,1.745,1.4,3.14,1.919,4.361s.872,2.442,1.221,3.315c.7,1.919,1.047,2.966.872,2.966s-.7-.872-1.57-2.617a26.1,26.1,0,0,0-1.57-3.14,29.817,29.817,0,0,0-2.093-4.012h0a27.4,27.4,0,0,0-5.757-6.455c-2.442-2.094-5.582-4.187-8.2-6.978a26.074,26.074,0,0,1-2.093-2.442c-.523-.872-1.221-1.745-1.745-2.791a26.834,26.834,0,0,1-1.744-5.757,18.824,18.824,0,0,0-1.745-4.71,20.149,20.149,0,0,0-2.617-3.489,28,28,0,0,0-5.234-4.012c-1.4-.872-2.093-1.221-2.093-1.4s.872.174,2.268.872a27.082,27.082,0,0,1,5.757,3.663,20.9,20.9,0,0,1,2.966,3.664,16.306,16.306,0,0,1,2.093,5.059,32.467,32.467,0,0,0,1.744,5.408,19.171,19.171,0,0,0,1.57,2.442A6.979,6.979,0,0,1,359.792,417.846Z" transform="translate(-341.3 -394.775)"/></g><g transform="translate(34.716 12.037)"><path class="p" d="M365.893,416.621c-2.791,11.339-.523,21.981.7,29.482,1.4,7.5,2.268,12.212,1.919,12.386q-.262,0-1.047-3.14c-.523-2.093-1.4-5.059-2.268-8.9a101.593,101.593,0,0,1-2.268-13.433c-.174-1.221-.174-2.617-.349-4.012v-4.187a42.2,42.2,0,0,1,.523-4.361c.174-1.4.523-2.791.7-4.361a68.638,68.638,0,0,0,1.047-8.374,27.992,27.992,0,0,0-.7-7.676,59.644,59.644,0,0,0-4.536-12.386,58.409,58.409,0,0,1-3.315-8.548c-.523-2.093-.7-3.315-.7-3.315.174,0,.523,1.047,1.221,3.14.872,1.919,2.093,4.71,3.838,8.2a55.246,55.246,0,0,1,5.059,12.735,40.738,40.738,0,0,1,.872,8.2A36.1,36.1,0,0,1,365.893,416.621Z" transform="translate(-355.6 -375.8)"/><path class="m" d="M366.63,402.446a8.837,8.837,0,0,1,.349-2.268l-1.047-1.047c-1.919-1.919-2.093-3.489-3.14-5.931-2.442,4.71-4.885,10.642-3.14,15.7.872,2.791,2.966,5.059,4.361,7.5.349.7.7,1.57,1.047,2.268a19.847,19.847,0,0,0,2.093-5.931C367.677,409.773,366.456,405.76,366.63,402.446Z" transform="translate(-353.023 -362.846)"/></g><g transform="translate(54.007 46.746)"><path class="p" d="M377.2,418.207c-1.919,3.663-2.268,7.85-3.489,11.514a33.916,33.916,0,0,1-2.093,5.059c-.7,1.57-1.57,2.791-2.093,4.187-2.617,5.059-2.268,8.723-2.617,8.723-.174,0-.349-.872-.174-2.442a16.946,16.946,0,0,1,1.745-6.629,44.584,44.584,0,0,1,1.919-4.187,23.233,23.233,0,0,0,1.744-4.885c1.047-3.489,1.4-7.85,3.489-11.863a16.565,16.565,0,0,1,1.745-2.966,30.351,30.351,0,0,1,2.093-2.442c1.57-1.4,2.966-2.791,4.536-4.012,2.966-2.268,5.757-4.361,7.85-6.106,4.361-3.663,6.28-6.629,6.629-6.455.174,0-.349.872-1.221,2.268a33.7,33.7,0,0,1-4.536,5.234c-2.093,1.919-4.71,4.187-7.676,6.455A26.626,26.626,0,0,0,377.2,418.207Z" transform="translate(-366.659 -395.696)"/></g><g transform="translate(55.999 62.788)"><path class="p" d="M384.373,419.385a20.006,20.006,0,0,0-5.059,2.791,16.031,16.031,0,0,0-3.838,3.838,48.542,48.542,0,0,0-5.059,7.85c-2.094,4.885-2.094,8.374-2.442,8.374-.174,0-.174-.872-.174-2.442a22.714,22.714,0,0,1,1.4-6.455,42.976,42.976,0,0,1,4.885-8.374,23.754,23.754,0,0,1,4.187-4.187,17.226,17.226,0,0,1,5.582-2.966,15.769,15.769,0,0,0,5.059-2.791,26.141,26.141,0,0,0,3.489-4.187c2.093-2.966,5.059-5.408,8.025-5.757a14.908,14.908,0,0,1,6.629.523c1.57.349,2.268.7,2.268.872s-.872,0-2.442-.174a15.52,15.52,0,0,0-6.28.174c-2.617.523-4.885,2.442-6.978,5.408a27.868,27.868,0,0,1-3.664,4.536A28.31,28.31,0,0,1,384.373,419.385Z" transform="translate(-367.8 -404.892)"/></g><g transform="translate(42.437 8.199)"><path class="y" d="M378.3,396.453c1.919-5.234,3.315-10.467,1.4-16.049-.872-2.268-2.093-4.536-2.791-6.8a21.163,21.163,0,0,0-1.744,2.442c-.872,1.745-.872,3.838-1.221,5.757a39.613,39.613,0,0,1-3.489,9.944c-3.315,5.931-8.9,10.118-10.118,17.271-1.221,6.8,1.4,14.3,5.234,19.713,1.4,2.093,3.14,4.187,3.663,6.629.174,1.221.174,2.442.349,3.489,1.4-2.966,3.838-5.582,5.582-8.025,4.187-5.582,4.536-10.816,2.966-17.271C376.553,407.967,376.2,402.035,378.3,396.453Z" transform="translate(-360.026 -373.6)"/></g><g transform="translate(49.781 18.666)"><path class="p" d="M367.139,417.281c1.047,5.582.523,10.99,0,15.7s-1.047,8.9-1.221,12.56c-.349,7.153,1.221,11.339.872,11.514-.174,0-.523-1.047-1.047-2.966a19.558,19.558,0,0,1-.7-3.663,10.209,10.209,0,0,0-.349-2.268v-2.617a120.135,120.135,0,0,1,.872-12.735c.349-4.71.872-9.944-.174-15.177-.872-5.234-1.919-10.816-.349-15.7a18.908,18.908,0,0,1,1.4-3.315c.523-1.047,1.047-1.919,1.57-2.791a50.26,50.26,0,0,0,2.791-5.059,21.765,21.765,0,0,0,2.268-8.025c.174-1.919,0-3.14.174-3.14s.349,1.047.523,3.14a19.452,19.452,0,0,1-1.919,8.374,50.489,50.489,0,0,1-2.617,5.408c-.523.872-1.047,1.919-1.57,2.791a16.8,16.8,0,0,0-1.221,3.14C365.394,406.64,366.267,411.873,367.139,417.281Z" transform="translate(-364.236 -379.6)"/></g><path class="z" d="M434.471,443.306H338c3.14-5.582,6.8-10.641,12.735-13.782,3.838-1.919,7.676-2.617,11.688-3.663,4.361-1.221,7.327-3.489,11.165-5.234,9.595-4.012,16.922,2.966,25.993,3.664,4.187.174,7.85-2.268,12.212-1.919,4.71.349,9.071,3.315,12.212,6.629C428.714,434.06,430.633,438.945,434.471,443.306Z" transform="translate(-333.988 -331.309)"/></g></g></g></g></g></g></svg>